<svg version="1.1" id="Layer_1" xmlns="http://www.w3.org/2000/svg" xmlns:xlink="http://www.w3.org/1999/xlink" x="0px" y="0px"
	 width="100%" viewBox="0 0 157 157" enable-background="new 0 0 157 157" xml:space="preserve">
<path fill="#262453" opacity="1.000000" stroke="none" 
	d="
M69.000000,1.000000 
	C75.687645,1.000000 82.375290,1.000000 89.682434,1.379196 
	C97.045868,3.309754 103.634888,4.961590 110.221313,7.511731 
	C117.702980,10.408490 123.996490,14.480917 129.733032,19.485033 
	C134.553452,23.689985 138.080399,29.342142 142.663208,33.863846 
	C148.663315,39.783928 151.491119,47.232452 153.994843,54.904442 
	C155.509094,59.544479 156.676651,64.297661 158.000000,69.000000 
	C158.000000,75.687645 158.000000,82.375290 157.621063,89.682022 
	C156.498428,93.064064 155.431259,95.785133 155.067078,98.597244 
	C153.497208,110.719498 147.292618,120.615089 139.684799,129.580490 
	C135.442474,134.579834 129.954239,138.524017 125.013664,142.928238 
	C117.681549,149.464371 108.582893,152.329453 99.432877,154.939987 
	C94.714943,156.286026 89.816742,157.000275 85.000000,158.000000 
	C81.969406,158.000000 78.938812,158.000000 75.299171,157.617981 
	C67.777222,156.707504 61.143913,155.380051 54.418579,153.284592 
	C45.601566,150.537399 37.217983,146.870850 30.793148,140.775986 
	C24.392057,134.703644 17.626129,128.869324 13.172871,120.430779 
	C9.387862,113.258514 6.000110,106.209251 4.028176,98.440987 
	C2.819118,93.678009 1.996278,88.816994 1.000000,84.000000 
	C1.000000,81.299988 1.000000,78.599968 1.387820,75.286995 
	C3.907968,65.300354 5.093751,55.570797 8.445611,46.655621 
	C11.635235,38.171955 17.048513,30.509481 24.111902,24.377571 
	C27.407108,21.516918 30.595823,18.515215 34.049583,15.859347 
	C41.590290,10.060705 50.047035,6.140905 59.335594,3.962613 
	C62.608646,3.195038 65.781433,1.999913 69.000000,1.000000 
M142.000000,84.514267 
	C143.001770,74.530190 141.581863,64.584679 137.603943,55.698448 
	C131.643448,42.383373 122.624733,31.348907 109.054733,24.382763 
	C93.850632,16.577753 78.512444,14.918208 62.115772,19.863245 
	C45.266285,24.944849 32.990246,34.926998 24.591019,50.474926 
	C18.561766,61.635757 15.692708,73.402397 17.402992,85.585991 
	C19.844553,102.978996 27.045027,117.919029 42.033020,128.912643 
	C53.207977,137.109421 65.218208,141.448273 78.641861,141.877975 
	C92.418243,142.318939 105.151131,138.005859 116.218987,129.886566 
	C131.185303,118.907379 139.857559,103.976196 142.000000,84.514267 
z"/>
<path fill="#FFFFFF" opacity="1.000000" stroke="none" 
	d="
M1.000000,84.468658 
	C1.996278,88.816994 2.819118,93.678009 4.028176,98.440987 
	C6.000110,106.209251 9.387862,113.258514 13.172871,120.430779 
	C17.626129,128.869324 24.392057,134.703644 30.793148,140.775986 
	C37.217983,146.870850 45.601566,150.537399 54.418579,153.284592 
	C61.143913,155.380051 67.777222,156.707504 74.845062,157.617981 
	C50.406464,158.000000 25.812923,158.000000 1.000000,158.000000 
	C1.000000,133.646210 1.000000,109.291763 1.000000,84.468658 
z"/>
<path fill="#FFFFFF" opacity="1.000000" stroke="none" 
	d="
M68.531342,1.000000 
	C65.781433,1.999913 62.608646,3.195038 59.335594,3.962613 
	C50.047035,6.140905 41.590290,10.060705 34.049583,15.859347 
	C30.595823,18.515215 27.407108,21.516918 24.111902,24.377571 
	C17.048513,30.509481 11.635235,38.171955 8.445611,46.655621 
	C5.093751,55.570797 3.907968,65.300354 1.387820,74.837021 
	C1.000000,50.409561 1.000000,25.819126 1.000000,1.000000 
	C23.353708,1.000000 45.708195,1.000000 68.531342,1.000000 
z"/>
<path fill="#FFFFFF" opacity="1.000000" stroke="none" 
	d="
M85.468658,158.000000 
	C89.816742,157.000275 94.714943,156.286026 99.432877,154.939987 
	C108.582893,152.329453 117.681549,149.464371 125.013664,142.928238 
	C129.954239,138.524017 135.442474,134.579834 139.684799,129.580490 
	C147.292618,120.615089 153.497208,110.719498 155.067078,98.597244 
	C155.431259,95.785133 156.498428,93.064064 157.621063,90.150551 
	C158.000000,112.596115 158.000000,135.192230 158.000000,158.000000 
	C133.979523,158.000000 109.958420,158.000000 85.468658,158.000000 
z"/>
<path fill="#FFFFFF" opacity="1.000000" stroke="none" 
	d="
M158.000000,68.531342 
	C156.676651,64.297661 155.509094,59.544479 153.994843,54.904442 
	C151.491119,47.232452 148.663315,39.783928 142.663208,33.863846 
	C138.080399,29.342142 134.553452,23.689985 129.733032,19.485033 
	C123.996490,14.480917 117.702980,10.408490 110.221313,7.511731 
	C103.634888,4.961590 97.045868,3.309754 90.150963,1.379196 
	C112.593513,1.000000 135.187027,1.000000 158.000000,1.000000 
	C158.000000,23.353748 158.000000,45.708218 158.000000,68.531342 
z"/>
<path fill="#FFFFFF" opacity="1.000000" stroke="none" 
	d="
M141.999985,84.962822 
	C139.857559,103.976196 131.185303,118.907379 116.218987,129.886566 
	C105.151131,138.005859 92.418243,142.318939 78.641861,141.877975 
	C65.218208,141.448273 53.207977,137.109421 42.033020,128.912643 
	C27.045027,117.919029 19.844553,102.978996 17.402992,85.585991 
	C15.692708,73.402397 18.561766,61.635757 24.591019,50.474926 
	C32.990246,34.926998 45.266285,24.944849 62.115772,19.863245 
	C78.512444,14.918208 93.850632,16.577753 109.054733,24.382763 
	C122.624733,31.348907 131.643448,42.383373 137.603943,55.698448 
	C141.581863,64.584679 143.001770,74.530190 141.999985,84.962822 
M84.007835,47.044563 
	C85.016800,46.010174 85.992455,44.940350 87.044174,43.951431 
	C88.081337,42.976192 89.195518,42.082863 91.309982,40.264160 
	C82.766365,40.264160 76.008003,40.264160 69.249641,40.264160 
	C69.050003,40.629211 68.850357,40.994259 68.650719,41.359310 
	C69.868057,42.232090 71.153244,43.026299 72.282349,44.001274 
	C73.274078,44.857635 74.818741,45.883686 74.864212,46.891418 
	C75.116295,52.478310 74.985016,58.082504 74.985016,63.614037 
	C66.295761,63.614037 58.243793,63.614037 50.000923,63.614037 
	C50.000923,58.240154 50.069698,53.249714 49.971634,48.262562 
	C49.923279,45.803310 50.378677,44.183998 53.288437,43.754051 
	C54.403938,43.589226 55.308876,41.999390 57.010174,40.400757 
	C48.859894,40.400757 42.014091,40.400757 34.345776,40.400757 
	C35.329556,41.726803 35.734329,42.874775 36.338833,42.991898 
	C41.163837,43.926735 41.111282,47.322212 41.057617,51.168503 
	C40.897243,62.662403 40.989265,74.159988 41.007736,85.656097 
	C41.012093,88.366035 41.421776,91.117317 37.246544,91.196182 
	C36.401836,91.212135 35.592495,93.100159 34.289448,94.717743 
	C42.263077,94.717743 49.012054,94.717743 55.761032,94.717743 
	C55.989502,94.308212 56.217972,93.898682 56.446445,93.489151 
	C55.250847,92.634354 53.998997,91.846634 52.876213,90.905014 
	C51.850094,90.044456 50.182571,89.048729 50.142841,88.058594 
	C49.891937,81.805687 50.015614,75.537750 50.015614,69.403664 
	C58.740395,69.403664 66.793282,69.403664 74.999977,69.403664 
	C74.999977,74.800323 74.916916,79.795975 75.030281,84.787163 
	C75.101387,87.917381 75.240128,90.745682 70.941811,91.210281 
	C70.099007,91.301376 69.446144,93.149712 68.266998,94.802460 
	C76.117264,94.802460 82.906494,94.802460 90.786530,94.802460 
	C89.549141,93.128647 88.785866,91.217987 88.032822,91.222015 
	C83.607048,91.245689 83.975876,88.356277 83.984512,85.433304 
	C84.021431,72.937607 84.000854,60.441746 84.007835,47.044563 
M85.023033,118.747261 
	C86.129967,119.497757 87.212227,120.850121 88.348030,120.896690 
	C93.862106,121.122780 99.392662,121.082138 104.912399,120.941040 
	C106.313622,120.905228 107.696602,120.155411 109.087967,119.733665 
	C109.115105,119.230988 109.142242,118.728310 109.169380,118.225639 
	C107.158882,117.484367 105.052895,116.924904 103.171951,115.936974 
	C101.948845,115.294548 100.202667,114.069763 100.151939,113.034309 
	C99.862312,107.122192 100.011330,101.188591 100.011330,95.000000 
	C102.652130,95.000000 104.630547,95.042206 106.606544,94.991234 
	C110.752060,94.884315 114.712341,94.866447 115.179756,100.597137 
	C115.230705,101.221848 117.208618,101.689400 118.994308,102.579582 
	C118.994308,96.799461 119.102531,91.993660 118.908699,87.200073 
	C118.866791,86.163559 117.738220,85.170990 117.110184,84.158188 
	C116.408119,84.938011 115.720245,85.731201 115.000984,86.494827 
	C113.580070,88.003357 112.338783,90.447258 110.668961,90.792900 
	C107.368774,91.476021 103.827515,90.994453 100.339958,90.994453 
	C100.339958,83.713814 100.339958,77.000961 100.339958,70.096802 
	C105.480919,70.096802 110.709389,68.913795 114.962303,70.443329 
	C118.889191,71.855606 121.769875,76.176857 125.111351,79.216888 
	C125.437805,78.975204 125.764267,78.733521 126.090721,78.491837 
	C125.363449,74.077774 124.636169,69.663712 123.950157,65.500076 
	C110.793060,65.500076 98.158203,65.500076 83.990166,65.500076 
	C85.449730,67.110954 86.173210,68.643059 87.268120,68.984680 
	C91.032318,70.159111 92.158997,72.481949 92.074371,76.303238 
	C91.853325,86.284409 91.706352,96.285683 92.112572,106.255203 
	C92.347885,112.030304 91.620415,116.520767 85.023033,118.747261 
z"/>
<path fill="#EA941F" opacity="1.000000" stroke="none" 
	d="
M84.004547,47.495255 
	C84.000854,60.441746 84.021431,72.937607 83.984512,85.433304 
	C83.975876,88.356277 83.607048,91.245689 88.032822,91.222015 
	C88.785866,91.217987 89.549141,93.128647 90.786530,94.802460 
	C82.906494,94.802460 76.117264,94.802460 68.266998,94.802460 
	C69.446144,93.149712 70.099007,91.301376 70.941811,91.210281 
	C75.240128,90.745682 75.101387,87.917381 75.030281,84.787163 
	C74.916916,79.795975 74.999977,74.800323 74.999977,69.403664 
	C66.793282,69.403664 58.740395,69.403664 50.015614,69.403664 
	C50.015614,75.537750 49.891937,81.805687 50.142841,88.058594 
	C50.182571,89.048729 51.850094,90.044456 52.876213,90.905014 
	C53.998997,91.846634 55.250847,92.634354 56.446445,93.489151 
	C56.217972,93.898682 55.989502,94.308212 55.761032,94.717743 
	C49.012054,94.717743 42.263077,94.717743 34.289448,94.717743 
	C35.592495,93.100159 36.401836,91.212135 37.246544,91.196182 
	C41.421776,91.117317 41.012093,88.366035 41.007736,85.656097 
	C40.989265,74.159988 40.897243,62.662403 41.057617,51.168503 
	C41.111282,47.322212 41.163837,43.926735 36.338833,42.991898 
	C35.734329,42.874775 35.329556,41.726803 34.345776,40.400757 
	C42.014091,40.400757 48.859894,40.400757 57.010174,40.400757 
	C55.308876,41.999390 54.403938,43.589226 53.288437,43.754051 
	C50.378677,44.183998 49.923279,45.803310 49.971634,48.262562 
	C50.069698,53.249714 50.000923,58.240154 50.000923,63.614037 
	C58.243793,63.614037 66.295761,63.614037 74.985016,63.614037 
	C74.985016,58.082504 75.116295,52.478310 74.864212,46.891418 
	C74.818741,45.883686 73.274078,44.857635 72.282349,44.001274 
	C71.153244,43.026299 69.868057,42.232090 68.650719,41.359310 
	C68.850357,40.994259 69.050003,40.629211 69.249641,40.264160 
	C76.008003,40.264160 82.766365,40.264160 91.309982,40.264160 
	C89.195518,42.082863 88.081337,42.976192 87.044174,43.951431 
	C85.992455,44.940350 85.016800,46.010174 84.004547,47.495255 
z"/>
<path fill="#EA941F" opacity="1.000000" stroke="none" 
	d="
M85.061256,118.322189 
	C91.620415,116.520767 92.347885,112.030304 92.112572,106.255203 
	C91.706352,96.285683 91.853325,86.284409 92.074371,76.303238 
	C92.158997,72.481949 91.032318,70.159111 87.268120,68.984680 
	C86.173210,68.643059 85.449730,67.110954 83.990166,65.500076 
	C98.158203,65.500076 110.793060,65.500076 123.950157,65.500076 
	C124.636169,69.663712 125.363449,74.077774 126.090721,78.491837 
	C125.764267,78.733521 125.437805,78.975204 125.111351,79.216888 
	C121.769875,76.176857 118.889191,71.855606 114.962303,70.443329 
	C110.709389,68.913795 105.480919,70.096802 100.339958,70.096802 
	C100.339958,77.000961 100.339958,83.713814 100.339958,90.994453 
	C103.827515,90.994453 107.368774,91.476021 110.668961,90.792900 
	C112.338783,90.447258 113.580070,88.003357 115.000984,86.494827 
	C115.720245,85.731201 116.408119,84.938011 117.110184,84.158188 
	C117.738220,85.170990 118.866791,86.163559 118.908699,87.200073 
	C119.102531,91.993660 118.994308,96.799461 118.994308,102.579582 
	C117.208618,101.689400 115.230705,101.221848 115.179756,100.597137 
	C114.712341,94.866447 110.752060,94.884315 106.606544,94.991234 
	C104.630547,95.042206 102.652130,95.000000 100.011330,95.000000 
	C100.011330,101.188591 99.862312,107.122192 100.151939,113.034309 
	C100.202667,114.069763 101.948845,115.294548 103.171951,115.936974 
	C105.052895,116.924904 107.158882,117.484367 109.169380,118.225639 
	C109.142242,118.728310 109.115105,119.230988 109.087967,119.733665 
	C107.696602,120.155411 106.313622,120.905228 104.912399,120.941040 
	C99.392662,121.082138 93.862106,121.122780 88.348030,120.896690 
	C87.212227,120.850121 86.129967,119.497757 85.061256,118.322189 
z"/>
</svg>