<svg id="bf84dc11-ad85-490a-bb9d-4dd024b102ef" data-name="b97d6ec0-a4fe-4f27-95af-30f0d3dff57a" xmlns="http://www.w3.org/2000/svg" width="175.68" height="73.2" viewBox="0 0 175.68 73.2"><defs><style>.f5cb0bfe-1df2-49b0-9aaf-fb5522699424,.fb8e027e-46ea-4606-b42f-2626d7cf92e9{fill:#3e3e40;}.aa87eb01-eeb9-4a8f-ab66-23ee819b6446{fill:#ec6a25;}.f5cb0bfe-1df2-49b0-9aaf-fb5522699424{isolation:isolate;font-size:23.34px;font-family:HelveticaNeue-Bold, Helvetica Neue;font-weight:700;letter-spacing:0.16em;}</style></defs><path class="fb8e027e-46ea-4606-b42f-2626d7cf92e9" d="M35.22,11.13v8.14H29v32H17.56V19.16l-6.82,0,0-8Z" transform="translate(-10.71 -11.1)"/><path class="aa87eb01-eeb9-4a8f-ab66-23ee819b6446" d="M46.58,11.1v8.14H36.39V11.1Zm0,9.82V51.45H36.39V20.92Z" transform="translate(-10.71 -11.1)"/><path class="fb8e027e-46ea-4606-b42f-2626d7cf92e9" d="M59.92,20.86l-.16,2.87a9.09,9.09,0,0,1,2.92-2.6,6.76,6.76,0,0,1,3.47-.85,6.47,6.47,0,0,1,4,1.25,5.2,5.2,0,0,1,2.1,2.86,23.21,23.21,0,0,1,.4,5.49l-.06,11.25A26.26,26.26,0,0,1,72,47.44a5.35,5.35,0,0,1-2.15,3A6.61,6.61,0,0,1,66,51.55a7.25,7.25,0,0,1-3.4-.84,9.56,9.56,0,0,1-2.86-2.55v7.45h-9.9l.06-34.67H59.92Zm2.81,9.45a18.14,18.14,0,0,0-.21-3.66C62.36,26.22,62,26,61.3,26a1.21,1.21,0,0,0-1.27.74,11.74,11.74,0,0,0-.3,3.56l0,11A14.23,14.23,0,0,0,60,45a1.23,1.23,0,0,0,1.28.74c.66,0,1-.23,1.19-.66a12.81,12.81,0,0,0,.24-3.26Z" transform="translate(-10.71 -11.1)"/><path class="fb8e027e-46ea-4606-b42f-2626d7cf92e9" d="M107.22,21l-4,30.26H92.52c-.58-3.68-1.27-8.57-2-14.61-.27,2.65-.64,5.33-1.12,8.06l-1.08,6.58H77.53L73.32,21h8.51q.12,1.18,2.15,17.32c.1-1.12.85-6.87,2.23-17.32H94.4l2,17.32A146.59,146.59,0,0,1,98.65,21Z" transform="translate(-10.71 -11.1)"/><path class="fb8e027e-46ea-4606-b42f-2626d7cf92e9" d="M130.72,31.42v7.37a28.84,28.84,0,0,1-.45,6,8.21,8.21,0,0,1-1.89,3.55,8.45,8.45,0,0,1-3.71,2.42,15.86,15.86,0,0,1-5.2.79,19.68,19.68,0,0,1-5.57-.66,7.22,7.22,0,0,1-5.33-5.28A23.25,23.25,0,0,1,108,39.8V32.08a17.47,17.47,0,0,1,1-6.55,7.81,7.81,0,0,1,3.53-3.79,13.12,13.12,0,0,1,6.5-1.43,15.72,15.72,0,0,1,5.7.92,9.34,9.34,0,0,1,3.69,2.39,8.66,8.66,0,0,1,1.78,3.05A16.49,16.49,0,0,1,130.72,31.42Zm-9.9-2.25a9.12,9.12,0,0,0-.26-2.92,1.13,1.13,0,0,0-1.14-.61,1.18,1.18,0,0,0-1.17.61,9.1,9.1,0,0,0-.29,2.92V42.75a8.86,8.86,0,0,0,.29,2.78,1.07,1.07,0,0,0,1.14.64,1.17,1.17,0,0,0,1.17-.58,7.13,7.13,0,0,0,.29-2.55Z" transform="translate(-10.71 -11.1)"/><text class="f5cb0bfe-1df2-49b0-9aaf-fb5522699424" transform="translate(66.78 61.98)">Limited</text><rect class="fb8e027e-46ea-4606-b42f-2626d7cf92e9" x="25.65" y="9.81" width="10.19" height="30.51"/><path d="M161.09,37.73" transform="translate(-10.71 -11.1)"/><path class="aa87eb01-eeb9-4a8f-ab66-23ee819b6446" d="M161.81,20.46h0s10.34,15.23,10.34,15.26S161.73,51,161.73,51L149.34,51l10.29-15S150,20.52,150,20.52Z" transform="translate(-10.71 -11.1)"/><rect class="fb8e027e-46ea-4606-b42f-2626d7cf92e9" x="37.14" width="134.52" height="8.12"/><path class="fb8e027e-46ea-4606-b42f-2626d7cf92e9" d="M143.56,20.86l-.4,4c1.43-2.82,3.34-4.14,6.07-4.3V31.23c-1.8,0-3-.13-3.82.32a2.93,2.93,0,0,0-1.56,1.89,31.78,31.78,0,0,0-.29,5.57V50.86h-9.9v-30Z" transform="translate(-10.71 -11.1)"/><polygon class="fb8e027e-46ea-4606-b42f-2626d7cf92e9" points="171.55 9.21 160.12 9.18 156.48 14.56 162.74 23.8 171.55 9.21"/><path class="fb8e027e-46ea-4606-b42f-2626d7cf92e9" d="M170.91,50.84l12-.06-9.5-14.37-6,9Z" transform="translate(-10.71 -11.1)"/></svg>